Coordinates
version=1
nRows=19
nColumns=38
inDegrees=no

Units are S.I. units (second, meters, Newtons, ...)
If the header above contains a line with 'inDegrees', this indicates whether rotational values are in degrees (yes) or radians (no).

endheader
time	pelvis_tilt	pelvis_list	pelvis_rotation	pelvis_tx	pelvis_ty	pelvis_tz	hip_flexion_r	hip_adduction_r	hip_rotation_r	knee_angle_r	ankle_angle_r	subtalar_angle_r	mtp_angle_r	hip_flexion_l	hip_adduction_l	hip_rotation_l	knee_angle_l	ankle_angle_l	subtalar_angle_l	mtp_angle_l	lumbar_extension	lumbar_bending	lumbar_rotation	arm_flex_r	arm_add_r	arm_rot_r	elbow_flex_r	pro_sup_r	wrist_flex_r	wrist_dev_r	arm_flex_l	arm_add_l	arm_rot_l	elbow_flex_l	pro_sup_l	wrist_flex_l	wrist_dev_l
0.26	-0.130599	-0.0707999	-0.119951	1.10098	0.980251	-0.419035	0.62998	0.202302	0.138496	-0.201334	0.33667	-0.011301	-0.00541667	-0.261548	0.0687828	-0.0663318	-1.07468	-0.33286	-0.0674457	-0.0432307	-0.234105	0.159883	-0.0836339	-0.991347	-0.186153	-0.448802	2.08019	1.66896	0.0123863	7.90272e-05	-0.251911	-0.301049	0.0790977	2.16507	1.73304	0.00213982	0.0132023
0.27	-0.112352	-0.0684393	-0.121502	1.09996	0.975665	-0.419608	0.643754	0.193326	0.0837538	-0.315711	0.297998	-0.011301	-0.00541667	-0.250895	0.050474	-0.102687	-1.20408	-0.303324	-0.0674457	-0.0432307	-0.258272	0.154705	-0.0692989	-0.951262	-0.225209	-0.438635	2.06604	1.66716	0.0123863	7.90272e-05	-0.275556	-0.286227	0.0686271	2.0953	1.72004	0.00213982	0.0132023
0.28	-0.0954669	-0.0680116	-0.123787	1.0985	0.970433	-0.420045	0.654042	0.188813	0.0401067	-0.429477	0.269536	-0.011301	-0.00541667	-0.231681	0.0344178	-0.128757	-1.32814	-0.271344	-0.0674457	-0.0432307	-0.282299	0.15111	-0.0526855	-0.905239	-0.263559	-0.425962	2.04904	1.66346	0.0123863	7.90272e-05	-0.298079	-0.271847	0.0562438	2.02494	1.71205	0.00213982	0.0132023
0.29	-0.0799542	-0.0695056	-0.12679	1.09664	0.964773	-0.420343	0.660495	0.188756	0.00771457	-0.541869	0.251584	-0.011301	-0.00541667	-0.203883	0.0205699	-0.144655	-1.44669	-0.237038	-0.0674457	-0.0432307	-0.306126	0.149071	-0.0338163	-0.853359	-0.301095	-0.410859	2.02933	1.65799	0.0123863	7.90272e-05	-0.319545	-0.257972	0.042024	1.9542	1.70897	0.00213982	0.0132023
0.3	-0.0657894	-0.072811	-0.13045	1.09443	0.959086	-0.420513	0.662306	0.19304	-0.0131883	-0.651063	0.244996	-0.011301	-0.00541667	-0.167472	0.008796	-0.150783	-1.55922	-0.200733	-0.0674457	-0.0432307	-0.329532	0.14845	-0.0127868	-0.795936	-0.337469	-0.393576	2.00741	1.65112	0.0123863	7.90272e-05	-0.340186	-0.244814	0.0262218	1.88384	1.71042	0.00213982	0.0132023
0.31	-0.053023	-0.0775491	-0.134585	1.09196	0.953847	-0.420579	0.658292	0.201234	-0.022625	-0.754379	0.25096	-0.011301	-0.00541667	-0.1225	-0.00113427	-0.148	-1.66471	-0.162984	-0.0674457	-0.0432307	-0.352086	0.148883	0.0101685	-0.733709	-0.372018	-0.374635	1.98438	1.64361	0.0123863	7.90272e-05	-0.360502	-0.232806	0.00935001	1.81532	1.71551	0.00213982	0.0132023
0.32	-0.0418223	-0.0830437	-0.138883	1.08931	0.949353	-0.420562	0.647089	0.212371	-0.0212112	-0.848536	0.270245	-0.011301	-0.00541667	-0.0691587	-0.00954872	-0.137712	-1.76165	-0.124489	-0.0674457	-0.0432307	-0.373056	0.149696	0.0346223	-0.668002	-0.403757	-0.354861	1.96204	1.63661	0.0123863	7.90272e-05	-0.381301	-0.222616	-0.0078077	1.75087	1.72268	0.00213982	0.0132023
0.33	-0.032476	-0.0883255	-0.142903	1.08657	0.945654	-0.420483	0.627444	0.224906	-0.0103048	-0.930045	0.302379	-0.011301	-0.00541667	-0.00780472	-0.0168595	-0.121849	-1.84812	-0.0859742	-0.0674457	-0.0432307	-0.391374	0.149957	0.0599607	-0.60077	-0.431479	-0.335334	1.94288	1.63147	0.0123863	7.90272e-05	-0.403665	-0.215067	-0.0242855	1.69334	1.72974	0.00213982	0.0132023
0.34	-0.0254365	-0.092229	-0.146104	1.08388	0.942706	-0.420345	0.598535	0.23686	0.00809863	-0.995699	0.345188	-0.011301	-0.00541667	0.0610089	-0.0234969	-0.102725	-1.92208	-0.0481098	-0.0674457	-0.0432307	-0.405718	0.148597	0.0854357	-0.534483	-0.453952	-0.31724	1.92976	1.62952	0.0123863	7.90272e-05	-0.428838	-0.210981	-0.0391373	1.64582	1.73418	0.00213982	0.0132023
0.35	-0.0212649	-0.0936115	-0.147948	1.0814	0.940528	-0.42011	0.560215	0.246073	0.0316426	-1.04301	0.394822	-0.011301	-0.00541667	0.136517	-0.0297716	-0.0828121	-1.98158	-0.0114679	-0.0674457	-0.0432307	-0.414659	0.14454	0.110257	-0.471821	-0.470179	-0.301616	1.92558	1.63167	0.0123863	7.90272e-05	-0.458048	-0.210938	-0.0517125	1.61116	1.73372	0.00213982	0.0132023
0.36	-0.0204786	-0.0914941	-0.148027	1.07933	0.939181	-0.41972	0.513075	0.250526	0.0578951	-1.07048	0.446161	-0.011301	-0.00541667	0.217701	-0.0357486	-0.0645162	-2.02501	0.0234768	-0.0674457	-0.0432307	-0.416891	0.136856	0.133717	-0.415247	-0.479671	-0.289059	1.93264	1.63815	0.0123863	7.90272e-05	-0.492321	-0.215054	-0.0619151	1.59146	1.72693	0.00213982	0.0132023
0.37	-0.0234799	-0.08517	-0.146161	1.0779	0.938698	-0.419126	0.458284	0.248603	0.0845565	-1.07763	0.493372	-0.011301	-0.00541667	0.303201	-0.0411557	-0.0499447	-2.05124	0.056336	-0.0674457	-0.0432307	-0.411509	0.12486	0.15529	-0.366568	-0.482635	-0.279475	1.95228	1.64834	0.0123863	7.90272e-05	-0.532325	-0.222824	-0.0703578	1.58768	1.71369	0.00213982	0.0132023
0.38	-0.0304337	-0.0742823	-0.142454	1.07728	0.939068	-0.418318	0.397332	0.239257	0.109561	-1.06499	0.530477	-0.011301	-0.00541667	0.391251	-0.0453793	-0.0406922	-2.05966	0.0867973	-0.0674457	-0.0432307	-0.398234	0.108187	0.174683	-0.326644	-0.480022	-0.271973	1.98449	1.66089	0.0123863	7.90272e-05	-0.57828	-0.233088	-0.0783378	1.59946	1.69532	0.00213982	0.0132023
0.39	-0.0411612	-0.0588824	-0.137245	1.07761	0.940252	-0.417342	0.331784	0.222087	0.1311	-1.03389	0.551905	-0.011301	-0.00541667	0.479684	-0.0475501	-0.0376523	-2.05019	0.11461	-0.0674457	-0.0432307	-0.3775	0.0868257	0.191816	-0.295327	-0.473389	-0.264995	2.02801	1.67402	0.0123863	7.90272e-05	-0.629937	-0.244162	-0.087616	1.62514	1.67434	0.00213982	0.0132023
0.4	-0.0551173	-0.0394252	-0.130998	1.07893	0.942193	-0.416295	0.263127	0.197346	0.147642	-0.986473	0.553009	-0.011301	-0.00541667	0.566036	-0.0466933	-0.0409007	-2.02318	0.139569	-0.0674457	-0.0432307	-0.350406	0.0611254	0.206772	-0.271648	-0.464637	-0.256648	2.08051	1.68603	0.0123863	7.90272e-05	-0.686598	-0.254097	-0.100052	1.66209	1.65369	0.00213982	0.0132023
0.41	-0.0714671	-0.0166913	-0.124181	1.08122	0.944813	-0.415306	0.192737	0.165911	0.158007	-0.925585	0.530567	-0.011301	-0.00541667	0.647746	-0.0419107	-0.0497002	-1.97933	0.161518	-0.0674457	-0.0432307	-0.318552	0.0317789	0.21976	-0.254167	-0.45569	-0.245144	2.13907	1.69565	0.0123863	7.90272e-05	-0.747173	-0.261014	-0.117196	1.70712	1.63598	0.00213982	0.0132023
0.42	-0.0891663	0.00835497	-0.117195	1.08438	0.948013	-0.414505	0.121963	0.129241	0.161547	-0.854809	0.483206	-0.011301	-0.00541667	0.722422	-0.0325713	-0.0626471	-1.91952	0.18039	-0.0674457	-0.0432307	-0.28379	-0.000204765	0.231091	-0.241358	-0.448209	-0.229202	2.20056	1.70219	0.0123863	7.90272e-05	-0.810226	-0.263425	-0.139961	1.75692	1.62289	0.00213982	0.0132023
0.43	-0.107122	0.0345449	-0.110346	1.08822	0.951663	-0.414003	0.0521778	0.089284	0.158406	-0.778422	0.411712	-0.011301	-0.00541667	0.788027	-0.0184588	-0.0779372	-1.84475	0.196288	-0.0674457	-0.0432307	-0.248013	-0.0336176	0.241154	-0.231937	-0.443404	-0.208328	2.26203	1.70539	0.0123863	7.90272e-05	-0.874035	-0.260474	-0.168442	1.80841	1.61506	0.00213982	0.0132023
0.44	-0.124324	0.0606181	-0.10384	1.0925	0.955612	-0.413856	-0.0152194	0.0483889	0.149742	-0.701285	0.319164	-0.011301	-0.00541667	0.842984	0.000116251	-0.0936745	-1.75599	0.209562	-0.0674457	-0.0432307	-0.213029	-0.0671145	0.250396	-0.225052	-0.441946	-0.182904	2.3209	1.70533	0.0123863	7.90272e-05	-0.936654	-0.252043	-0.201917	1.85905	1.61222	0.00213982	0.0132023
